<?xml version="1.0" encoding="iso-8859-1"?>
<!-- Generator: Adobe Illustrator 19.0.0, SVG Export Plug-In . SVG Version: 6.00 Build 0)  -->
<svg version="1.1" id="Layer_1" xmlns="http://www.w3.org/2000/svg" xmlns:xlink="http://www.w3.org/1999/xlink" x="0px" y="0px"
	 viewBox="0 0 423.754 423.754" style="enable-background:new 0 0 423.754 423.754;" xml:space="preserve">
<path d="M407.516,123.239l-27.717,11.48c18.585,44.869,18.585,94.291,0,139.159c-18.585,44.869-53.531,79.815-98.4,98.4
	c-22.438,9.293-46.004,13.94-69.579,13.939c-23.569-0.001-47.147-4.647-69.579-13.939c-44.869-18.585-79.815-53.531-98.4-98.4
	C13.507,200.647,34.758,118.71,90.758,68.644l60.801,60.801V7.521H29.635L69.514,47.4C5.222,105.826-18.985,200.6,16.123,285.359
	c21.652,52.272,62.364,92.984,114.636,114.636c26.137,10.826,53.599,16.239,81.061,16.239s54.924-5.413,81.06-16.239
	c52.272-21.652,92.984-62.364,114.637-114.636C429.167,233.087,429.167,175.511,407.516,123.239z"/>
<g>
</g>
<g>
</g>
<g>
</g>
<g>
</g>
<g>
</g>
<g>
</g>
<g>
</g>
<g>
</g>
<g>
</g>
<g>
</g>
<g>
</g>
<g>
</g>
<g>
</g>
<g>
</g>
<g>
</g>
</svg>
